<?xml version="1.0" encoding="UTF-8"?>
<svg version="1.1" xmlns="http://www.w3.org/2000/svg" width="300" height="300">
<path d="M0 0 C5.62894557 3.15101293 11.32332522 5.89308351 17.25 8.4375 C35.2375568 16.27954891 49.97487268 26.97650201 64.1875 40.4375 C65.5796875 41.75041016 65.5796875 41.75041016 67 43.08984375 C72.88642813 48.74161359 77.8444101 54.52936371 82.1875 61.4375 C82.54054199 61.98390137 82.89358398 62.53030273 83.25732422 63.09326172 C103.22121775 94.09050537 108.47996936 130.7812975 101.15234375 166.71875 C96.33633635 188.83478396 87.439691 207.56007553 72.1875 224.4375 C71.31867188 225.40042969 70.44984375 226.36335937 69.5546875 227.35546875 C41.43136092 257.4373667 -0.95297383 272.21096245 -41.3515625 273.6171875 C-67.59573987 274.19957472 -96.2730073 269.359493 -117.8125 253.4375 C-118.64910156 252.82132812 -119.48570313 252.20515625 -120.34765625 251.5703125 C-144.91487858 232.6607658 -156.11097393 206.52235532 -160.03833008 176.36889648 C-164.97690323 130.99008082 -157.17266619 76.67703511 -128.8125 39.4375 C-110.17549674 16.57250145 -90.48284928 10.82456306 -62.24829102 7.82006836 C-56.68977816 7.25907512 -51.12662108 6.75172286 -45.5625 6.25 C-43.6301603 6.07148274 -41.6978683 5.89244835 -39.765625 5.71289062 C-35.11510822 5.28183371 -30.46401419 4.85765126 -25.8125 4.4375 C-25.8125 3.1175 -25.8125 1.7975 -25.8125 0.4375 C-16.48104678 -5.2345598 -9.77027815 -5.69564177 0 0 Z " fill="#FDFDFD" transform="translate(178.8125,15.5625)"/>
<path d="M0 0 C5.62894557 3.15101293 11.32332522 5.89308351 17.25 8.4375 C35.2375568 16.27954891 49.97487268 26.97650201 64.1875 40.4375 C65.5796875 41.75041016 65.5796875 41.75041016 67 43.08984375 C72.88642813 48.74161359 77.8444101 54.52936371 82.1875 61.4375 C82.54054199 61.98390137 82.89358398 62.53030273 83.25732422 63.09326172 C103.22121775 94.09050537 108.47996936 130.7812975 101.15234375 166.71875 C96.33633635 188.83478396 87.439691 207.56007553 72.1875 224.4375 C71.31867188 225.40042969 70.44984375 226.36335937 69.5546875 227.35546875 C41.43136092 257.4373667 -0.95297383 272.21096245 -41.3515625 273.6171875 C-67.59573987 274.19957472 -96.2730073 269.359493 -117.8125 253.4375 C-118.64910156 252.82132812 -119.48570313 252.20515625 -120.34765625 251.5703125 C-144.91487858 232.6607658 -156.11097393 206.52235532 -160.03833008 176.36889648 C-164.97690323 130.99008082 -157.17266619 76.67703511 -128.8125 39.4375 C-110.17549674 16.57250145 -90.48284928 10.82456306 -62.24829102 7.82006836 C-56.68977816 7.25907512 -51.12662108 6.75172286 -45.5625 6.25 C-43.6301603 6.07148274 -41.6978683 5.89244835 -39.765625 5.71289062 C-35.11510822 5.28183371 -30.46401419 4.85765126 -25.8125 4.4375 C-25.8125 3.1175 -25.8125 1.7975 -25.8125 0.4375 C-16.48104678 -5.2345598 -9.77027815 -5.69564177 0 0 Z M-62.8125 24.4375 C-64.26798364 24.75068173 -65.73227282 25.02320781 -67.19921875 25.27734375 C-81.9610445 28.12897065 -96.25928323 33.72934919 -107.8125 43.4375 C-108.55242187 44.04980469 -109.29234375 44.66210938 -110.0546875 45.29296875 C-133.65676005 66.82871199 -141.04180544 105.07716127 -142.8125 135.4375 C-144.06100839 164.85689765 -141.94759358 200.3723742 -121.0625 223.3125 C-101.14352743 244.11029628 -71.04483614 252.8239843 -42.828125 253.75390625 C-31.40735177 253.93552532 -20.01249188 253.86989087 -8.8125 251.4375 C-8.17844238 251.30327637 -7.54438477 251.16905273 -6.89111328 251.03076172 C21.99027472 244.79900703 45.50762122 228.3777858 61.58203125 203.65625 C68.3728716 192.84335605 74.13857914 181.56819543 78.1875 169.4375 C78.47109375 168.59832031 78.7546875 167.75914062 79.046875 166.89453125 C87.9847986 137.48146634 86.5739597 105.07632208 72.375 77.625 C63.16131237 61.83010693 51.63733996 50.59816474 35.98339844 41.50341797 C34.45113155 40.59397299 32.95880924 39.61778268 31.4765625 38.62890625 C27.49963545 36.03316428 27.49963545 36.03316428 22.89453125 35.58984375 C20.5895453 36.07600594 20.5895453 36.07600594 18.5234375 36.82421875 C12.63081598 38.37127825 8.53137196 37.49298565 3.39379883 34.59155273 C2.70697021 34.19009033 2.0201416 33.78862793 1.3125 33.375 C-0.19917489 32.54722904 -1.71357748 31.72442273 -3.23046875 30.90625 C-3.99536621 30.49246094 -4.76026367 30.07867187 -5.54833984 29.65234375 C-17.69360614 23.13575489 -50.90378715 12.52878715 -62.8125 24.4375 Z " fill="#0D0D0D" transform="translate(178.8125,15.5625)"/>
<path d="M0 0 C0.21914062 0.54527344 0.43828125 1.09054688 0.6640625 1.65234375 C7.16514161 17.11222701 17.81459849 27.05711635 33 34 C38.2194342 36.09312433 43.55671963 37.60962745 49 39 C49.94746094 39.24621094 50.89492187 39.49242187 51.87109375 39.74609375 C75.16288464 44.64784945 97.2460869 40.46861975 117.17578125 28.015625 C124.77400692 22.76097378 130.53778417 16.39397509 136 9 C137.98 9.495 137.98 9.495 140 10 C140.91484465 20.9781358 136.65060507 29.76123332 129.6953125 38.1015625 C123.96939069 44.51353946 118.09934338 49.24485627 110.4375 53.0625 C109.73439697 53.41320557 109.03129395 53.76391113 108.30688477 54.12524414 C86.51035635 64.65359337 59.26847797 63.05183748 36.8203125 55.40625 C26.49027044 51.70040532 17.21757148 46.2850811 9 39 C9 38.34 9 37.68 9 37 C8.34 37 7.68 37 7 37 C5.4225602 34.84187078 3.97985158 32.69747739 2.5625 30.4375 C1.96985352 29.52387695 1.96985352 29.52387695 1.36523438 28.59179688 C-4.31979487 19.65277419 -6.18564774 11.58192144 -6 1 C-4 0 -4 0 0 0 Z " fill="#111111" transform="translate(78,158)"/>
<path d="M0 0 C3.16631952 1.44537143 5.16286498 3.03006287 7 6 C8.16897245 10.9822412 7.5798264 14.79574517 5.375 19.375 C1.96898094 23.13954738 -0.9323417 25.61231407 -6 26.5625 C-10.19038007 25.77680374 -12.07583295 24.05708374 -15 21 C-17.710089 15.93331188 -17.51416059 10.44916476 -16 5 C-11.70082217 -0.51176645 -6.78332236 -1.46348845 0 0 Z " fill="#121212" transform="translate(196,114)"/>
<path d="M0 0 C4.44546628 0.06373428 6.9059423 1.38127593 10.3125 4.3125 C13.53301254 8.06976463 13.72124631 11.39832161 13.53125 16.1640625 C13.12141337 20.1892437 12.27316366 22.41187782 9.3125 25.1875 C4.77432546 26.88931545 0.93725225 26.72131608 -3.6875 25.3125 C-6.69731367 23.46624349 -8.27734183 21.5443411 -9.6875 18.3125 C-10.5309301 13.65208695 -11.09773078 8.6778871 -8.5859375 4.46484375 C-7.25 3.125 -7.25 3.125 -4.6875 1.3125 C-3.6875 0.3125 -3.6875 0.3125 0 0 Z " fill="#111111" transform="translate(101.6875,111.6875)"/>
</svg>
